<svg width="346" height="201" viewBox="0 0 346 201" fill="none" xmlns="http://www.w3.org/2000/svg">
<path d="M3.3982 178.703C-0.366431 170.555 0.552543 160.567 5.69991 149.351C10.8453 138.139 20.1633 125.828 32.9552 113.173C58.5326 87.8678 97.8373 61.3439 144.813 39.6386C191.789 17.9333 237.463 5.19299 273.311 2.11624C291.239 0.577483 306.654 1.46088 318.527 4.80933C330.404 8.15908 338.606 13.9328 342.37 22.0804C346.135 30.2281 345.216 40.216 340.069 51.4321C334.923 62.6439 325.605 74.955 312.813 87.6105C287.236 112.915 247.931 139.439 200.955 161.145C153.979 182.85 108.306 195.59 72.4579 198.667C54.5295 200.206 39.115 199.322 27.242 195.974C15.3645 192.624 7.16283 186.85 3.3982 178.703Z" stroke="#2B58DE" stroke-width="2"/>
</svg>
